<svg id="svg" version="1.1" width="390" height="128" xmlns="http://www.w3.org/2000/svg" xmlns:xlink="http://www.w3.org/1999/xlink" style="display: block;"><g id="svgg"><path id="path0" d="M78.817 12.789 C 78.053 13.261,78.692 14.160,84.605 20.929 C 87.355 24.077,91.525 27.009,92.238 26.295 C 94.628 23.905,81.769 10.965,78.817 12.789 " stroke="none" fill="#a0b708" fill-rule="evenodd"></path><path id="path1" d="M44.564 80.600 C 44.563 84.340,44.623 85.924,44.697 84.120 C 44.771 82.315,44.772 79.255,44.698 77.320 C 44.625 75.384,44.564 76.860,44.564 80.600 M91.720 77.200 C 91.720 78.410,91.795 78.905,91.887 78.300 C 91.978 77.695,91.978 76.705,91.887 76.100 C 91.795 75.495,91.720 75.990,91.720 77.200 M274.100 103.887 C 274.705 103.978,275.695 103.978,276.300 103.887 C 276.905 103.795,276.410 103.720,275.200 103.720 C 273.990 103.720,273.495 103.795,274.100 103.887 M91.714 106.200 C 91.717 107.300,91.795 107.703,91.887 107.095 C 91.979 106.486,91.977 105.586,91.882 105.095 C 91.787 104.603,91.711 105.100,91.714 106.200 M44.550 124.200 C 44.551 126.620,44.616 127.558,44.696 126.285 C 44.776 125.012,44.775 123.032,44.694 121.885 C 44.614 120.738,44.549 121.780,44.550 124.200 M36.900 129.876 C 37.285 129.976,37.915 129.976,38.300 129.876 C 38.685 129.775,38.370 129.693,37.600 129.693 C 36.830 129.693,36.515 129.775,36.900 129.876 M97.300 129.876 C 97.685 129.976,98.315 129.976,98.700 129.876 C 99.085 129.775,98.770 129.693,98.000 129.693 C 97.230 129.693,96.915 129.775,97.300 129.876 M134.500 129.876 C 134.885 129.976,135.515 129.976,135.900 129.876 C 136.285 129.775,135.970 129.693,135.200 129.693 C 134.430 129.693,134.115 129.775,134.500 129.876 " stroke="none" fill="#66cc00" fill-rule="evenodd"></path><path id="path2" d="M52.719 3.091 C 51.891 3.286,51.393 4.657,51.909 5.319 C 52.115 5.584,52.592 7.057,52.969 8.592 C 53.347 10.128,53.806 11.568,53.990 11.792 C 54.174 12.017,54.633 13.280,55.010 14.600 C 55.388 15.920,55.928 17.450,56.212 18.000 C 57.117 19.754,58.000 21.907,58.000 22.360 C 58.000 22.602,58.180 22.800,58.400 22.800 C 58.620 22.800,58.765 22.935,58.722 23.100 C 58.522 23.871,63.879 31.584,66.016 33.600 C 66.598 34.150,67.958 35.271,69.038 36.091 C 70.117 36.911,71.225 37.773,71.500 38.006 C 71.775 38.240,72.000 38.322,72.000 38.189 C 72.000 38.055,72.495 38.294,73.100 38.720 C 74.246 39.528,78.465 41.600,78.963 41.600 C 79.267 41.600,84.314 43.928,87.000 45.307 C 87.880 45.759,89.821 46.910,91.312 47.864 C 92.804 48.819,94.184 49.600,94.379 49.600 C 94.574 49.600,94.793 49.742,94.867 49.917 C 95.156 50.604,97.990 52.453,98.383 52.211 C 99.256 51.671,98.509 34.868,97.503 32.435 C 97.267 31.866,97.007 30.950,96.923 30.400 C 96.385 26.856,91.989 17.114,90.552 16.280 C 90.248 16.104,90.000 15.798,90.000 15.599 C 90.000 14.322,84.748 9.765,80.629 7.468 C 73.995 3.769,59.503 1.496,52.719 3.091 M82.400 13.733 C 86.849 15.857,93.801 24.733,92.238 26.295 C 91.133 27.400,86.346 23.244,80.400 16.016 C 77.353 12.312,77.963 11.616,82.400 13.733 " stroke="none" fill="#8dc905" fill-rule="evenodd"></path><path id="path3" d="M5.285 63.098 L 5.400 67.000 18.100 67.106 L 30.800 67.211 30.800 98.374 L 30.800 129.536 31.900 129.741 C 33.407 130.021,43.874 129.860,44.182 129.552 C 44.318 129.415,44.427 115.555,44.423 98.752 C 44.419 81.948,44.556 67.978,44.728 67.706 C 44.963 67.334,48.206 67.185,57.820 67.106 L 70.600 67.000 70.600 63.200 L 70.600 59.400 37.885 59.298 L 5.171 59.195 5.285 63.098 M92.142 59.690 C 91.584 60.585,91.809 129.235,92.370 129.582 C 93.277 130.142,105.094 130.010,105.572 129.434 C 105.876 129.067,105.974 118.617,105.902 94.156 L 105.800 59.400 99.130 59.290 C 94.063 59.207,92.383 59.303,92.142 59.690 M128.451 59.904 C 127.774 61.169,128.075 129.152,128.760 129.575 C 129.368 129.951,140.311 130.093,142.100 129.748 L 143.200 129.536 143.200 112.782 C 143.200 94.301,143.022 95.594,145.638 95.031 C 150.108 94.069,153.935 93.125,154.600 92.821 C 155.040 92.620,156.120 92.243,157.000 91.983 C 157.880 91.724,159.352 91.081,160.271 90.556 C 162.165 89.473,162.913 89.376,163.671 90.115 C 163.962 90.399,164.920 90.966,165.800 91.376 C 166.680 91.785,167.850 92.460,168.400 92.876 C 168.950 93.291,170.480 94.418,171.800 95.379 C 177.860 99.796,189.486 112.807,193.064 119.176 C 193.689 120.289,194.335 121.199,194.500 121.200 C 194.665 121.200,194.800 121.445,194.800 121.744 C 194.800 122.043,195.273 122.985,195.850 123.836 C 196.428 124.687,197.152 126.098,197.461 126.972 C 198.524 129.986,198.562 130.000,205.629 130.000 C 213.632 130.000,214.486 129.516,212.682 126.000 C 212.400 125.450,211.834 124.113,211.424 123.029 C 211.015 121.945,210.257 120.435,209.740 119.673 C 209.223 118.912,208.800 118.118,208.800 117.910 C 208.800 117.355,204.178 110.585,201.898 107.800 C 195.159 99.568,191.721 95.876,186.355 91.108 C 182.482 87.667,181.892 87.184,180.700 86.479 C 180.095 86.120,179.600 85.682,179.600 85.504 C 179.600 85.326,179.150 85.009,178.600 84.800 C 177.088 84.225,177.394 83.486,179.501 82.619 C 180.546 82.190,181.970 81.470,182.668 81.019 C 183.365 80.569,184.865 79.660,186.001 79.000 C 187.137 78.340,188.277 77.613,188.533 77.385 C 188.790 77.157,189.636 76.581,190.414 76.106 C 191.191 75.630,192.361 74.782,193.014 74.221 C 193.666 73.660,194.322 73.201,194.471 73.200 C 194.621 73.200,194.981 72.975,195.271 72.700 C 195.562 72.425,196.880 71.391,198.200 70.402 C 204.637 65.580,209.200 61.230,209.200 59.914 C 209.200 59.252,208.605 59.200,200.974 59.200 C 192.547 59.200,191.982 59.290,190.283 60.909 C 189.769 61.399,188.820 62.207,188.174 62.705 C 187.528 63.203,186.190 64.262,185.200 65.058 C 184.210 65.855,182.995 66.691,182.500 66.917 C 182.005 67.143,181.600 67.485,181.600 67.677 C 181.600 67.869,181.277 68.155,180.882 68.313 C 180.487 68.471,179.362 69.110,178.382 69.734 C 173.585 72.785,172.189 73.600,171.756 73.600 C 171.497 73.600,171.198 73.825,171.091 74.100 C 170.984 74.375,169.975 74.955,168.848 75.388 C 167.722 75.821,166.800 76.327,166.800 76.512 C 166.800 76.696,166.620 76.736,166.400 76.600 C 166.180 76.464,166.000 76.510,166.000 76.703 C 166.000 76.895,164.965 77.477,163.700 77.996 C 162.435 78.515,161.310 79.043,161.200 79.170 C 160.999 79.402,158.700 80.311,155.000 81.624 C 152.480 82.518,147.581 83.638,145.106 83.886 L 143.212 84.076 143.106 71.738 L 143.000 59.400 135.919 59.291 C 129.436 59.191,128.805 59.243,128.451 59.904 M270.758 60.131 C 268.555 62.273,260.583 71.823,257.679 75.800 C 257.519 76.020,256.498 77.460,255.411 79.000 C 254.324 80.540,253.199 82.040,252.912 82.334 C 252.624 82.628,252.028 83.618,251.587 84.534 C 250.724 86.328,250.593 86.556,248.310 90.228 C 247.479 91.563,246.800 92.868,246.800 93.128 C 246.800 93.388,246.644 93.600,246.454 93.600 C 246.264 93.600,245.787 94.455,245.395 95.500 C 245.002 96.545,244.380 97.850,244.012 98.400 C 243.644 98.950,243.012 100.300,242.607 101.400 C 242.202 102.500,241.650 103.760,241.380 104.200 C 241.110 104.640,240.666 105.720,240.392 106.600 C 240.119 107.480,239.743 108.394,239.556 108.631 C 239.369 108.868,238.834 110.308,238.366 111.831 C 237.899 113.354,237.371 114.780,237.193 115.000 C 237.015 115.220,236.505 116.750,236.061 118.400 C 235.616 120.050,234.884 122.750,234.433 124.400 C 232.867 130.134,232.664 129.951,240.600 129.968 C 246.394 129.980,247.600 129.836,247.600 129.133 C 247.600 128.907,247.852 128.154,248.160 127.460 C 248.468 126.767,248.837 125.750,248.979 125.200 C 249.955 121.418,250.502 119.633,251.038 118.484 C 251.376 117.761,251.929 116.231,252.267 115.084 C 252.605 113.938,253.020 112.820,253.189 112.600 C 253.358 112.380,253.723 111.480,254.000 110.600 C 254.277 109.720,255.042 107.830,255.700 106.400 C 260.207 96.605,261.698 93.492,262.022 93.200 C 262.145 93.090,262.657 92.111,263.160 91.023 C 263.664 89.936,264.488 88.496,264.992 87.823 C 265.495 87.151,266.030 86.195,266.181 85.700 C 266.331 85.205,266.604 84.800,266.787 84.800 C 266.970 84.800,267.516 84.039,268.001 83.109 C 268.485 82.179,269.321 80.874,269.858 80.209 C 270.395 79.544,271.094 78.640,271.412 78.200 C 272.542 76.635,276.702 71.787,277.591 71.000 L 278.494 70.200 280.694 72.600 C 283.221 75.357,287.600 81.051,287.600 81.581 C 287.600 81.778,288.025 82.447,288.545 83.069 C 289.065 83.691,289.879 84.965,290.353 85.900 C 290.828 86.835,291.393 87.600,291.608 87.600 C 291.824 87.600,292.000 87.776,292.000 87.990 C 292.000 88.205,293.421 91.087,295.158 94.395 C 296.895 97.703,298.604 101.127,298.955 102.005 L 299.594 103.600 288.897 103.683 C 283.014 103.729,274.572 103.724,270.137 103.673 L 262.074 103.580 261.237 104.644 C 260.777 105.229,260.400 105.954,260.400 106.254 C 260.400 106.554,260.220 106.800,260.000 106.800 C 259.780 106.800,259.638 106.935,259.685 107.100 C 259.732 107.265,259.557 107.782,259.298 108.250 C 259.038 108.717,258.707 109.842,258.562 110.750 L 258.298 112.400 280.449 112.406 C 304.634 112.413,303.317 112.279,304.191 114.816 C 304.529 115.797,304.971 116.960,305.174 117.400 C 305.377 117.840,305.850 119.190,306.224 120.400 C 306.599 121.610,307.042 122.780,307.209 123.000 C 307.375 123.220,307.828 124.713,308.214 126.317 C 309.097 129.982,308.957 129.919,316.269 129.927 C 322.611 129.934,324.457 129.520,323.300 128.347 C 323.025 128.068,322.797 127.471,322.794 127.020 C 322.784 125.564,319.431 113.426,318.810 112.600 C 318.645 112.380,318.186 111.120,317.791 109.800 C 317.395 108.480,316.855 107.130,316.591 106.800 C 316.327 106.470,315.832 105.390,315.491 104.400 C 314.624 101.881,312.286 96.692,311.770 96.142 C 311.534 95.890,311.024 94.855,310.637 93.842 C 310.250 92.829,309.769 92.000,309.567 92.000 C 309.365 92.000,309.200 91.769,309.200 91.487 C 309.200 91.204,308.615 90.048,307.900 88.918 C 307.185 87.788,306.290 86.354,305.911 85.731 C 303.939 82.490,301.101 78.335,300.300 77.516 C 299.915 77.122,299.600 76.665,299.599 76.500 C 299.599 76.335,299.059 75.570,298.400 74.800 C 297.741 74.030,297.201 73.272,297.201 73.116 C 297.200 72.959,296.879 72.509,296.486 72.116 C 296.093 71.722,294.698 70.059,293.386 68.420 C 292.074 66.781,290.010 64.405,288.800 63.140 C 287.590 61.875,286.287 60.471,285.904 60.020 C 284.764 58.677,272.159 58.770,270.758 60.131 M342.676 59.457 C 342.040 60.093,342.363 129.500,343.003 129.746 C 343.956 130.111,394.141 130.032,394.716 129.664 C 395.092 129.423,395.200 128.309,395.116 125.567 L 395.000 121.800 375.700 121.696 L 356.400 121.592 356.393 105.096 C 356.389 96.023,356.344 82.030,356.293 74.000 L 356.200 59.400 349.576 59.291 C 345.933 59.231,342.828 59.306,342.676 59.457 " stroke="none" fill="#80e302" fill-rule="evenodd"></path><path id="path4" d="" stroke="none" fill="#00ff00" fill-rule="evenodd"></path></g></svg>