<svg id="svg" version="1.1" width="500" height="515" xmlns="http://www.w3.org/2000/svg" xmlns:xlink="http://www.w3.org/1999/xlink" style="display: block;"><g id="svgg"><path id="path0" d="M198.730 71.133 C 198.549 71.317,198.400 96.427,198.400 126.933 L 198.400 182.400 216.200 182.329 C 232.179 182.266,247.926 181.611,264.563 180.319 L 270.325 179.872 276.381 171.736 C 279.712 167.261,282.699 163.236,283.019 162.792 C 284.253 161.077,288.000 152.990,288.000 152.041 C 288.000 151.491,288.522 149.907,289.159 148.521 C 293.176 139.783,293.176 113.817,289.159 105.079 C 288.522 103.693,287.989 102.073,287.975 101.479 C 287.961 100.886,287.065 98.600,285.982 96.400 C 284.900 94.200,284.011 91.980,284.007 91.467 C 284.003 90.953,283.709 90.413,283.353 90.267 C 282.997 90.120,281.559 87.980,280.157 85.510 C 277.655 81.101,277.519 81.002,272.604 79.990 C 269.852 79.424,267.240 78.695,266.800 78.370 C 266.360 78.045,264.020 77.518,261.600 77.198 C 259.180 76.879,256.868 76.418,256.461 76.176 C 256.055 75.933,254.795 75.622,253.661 75.486 C 249.276 74.958,235.580 72.982,235.200 72.823 C 233.939 72.294,199.176 70.684,198.730 71.133 " stroke="none" fill="#f1f1f1" fill-rule="evenodd"></path><path id="path1" d="M129.931 265.576 C 122.551 268.562,117.626 291.200,124.357 291.200 C 130.225 291.200,137.737 272.391,134.091 266.826 C 132.653 264.631,132.432 264.565,129.931 265.576 M138.530 280.434 C 137.190 283.376,137.445 284.004,138.895 281.329 C 139.571 280.080,139.976 278.909,139.793 278.726 C 139.610 278.543,139.041 279.312,138.530 280.434 M118.848 300.747 C 114.845 305.170,113.797 319.279,117.000 325.630 C 121.756 335.063,128.680 326.392,127.830 312.068 C 127.215 301.700,122.903 296.266,118.848 300.747 M121.182 341.915 C 116.771 348.647,126.126 367.894,134.875 370.090 C 144.759 372.571,143.663 354.234,133.322 344.111 C 128.621 339.509,123.380 338.560,121.182 341.915 M117.600 399.200 C 117.600 399.640,118.410 399.994,119.400 399.988 C 120.856 399.978,120.970 399.827,120.000 399.200 C 118.449 398.198,117.600 398.198,117.600 399.200 " stroke="none" fill="#979e03" fill-rule="evenodd"></path><path id="path2" d="M131.809 181.366 C 132.804 181.557,134.244 181.550,135.009 181.350 C 135.774 181.149,134.960 180.993,133.200 181.002 C 131.440 181.011,130.814 181.174,131.809 181.366 M147.809 182.166 C 148.804 182.357,150.244 182.350,151.009 182.150 C 151.774 181.949,150.960 181.793,149.200 181.802 C 147.440 181.811,146.814 181.974,147.809 182.166 M184.200 183.791 C 186.730 183.950,190.870 183.950,193.400 183.791 C 195.930 183.632,193.860 183.503,188.800 183.503 C 183.740 183.503,181.670 183.632,184.200 183.791 M148.800 249.988 C 117.843 255.995,84.800 272.482,84.800 281.923 C 84.800 282.626,84.466 283.200,84.057 283.200 C 83.648 283.200,82.916 285.270,82.430 287.800 C 81.943 290.330,81.199 293.023,80.776 293.784 C 80.353 294.545,79.443 298.865,78.754 303.384 C 78.065 307.903,77.254 313.220,76.951 315.200 C 73.835 335.563,80.136 364.805,90.470 377.936 C 90.845 378.411,92.845 380.960,94.916 383.600 C 96.986 386.240,99.608 389.217,100.740 390.215 C 101.873 391.213,103.340 392.528,104.000 393.136 C 106.443 395.388,113.120 398.400,115.667 398.400 C 117.113 398.400,119.219 398.751,120.348 399.180 C 121.477 399.609,122.400 399.660,122.400 399.292 C 122.400 398.925,124.365 398.421,126.767 398.173 C 131.932 397.640,136.852 394.659,142.688 388.526 C 146.135 384.904,147.173 383.330,148.047 380.400 C 148.178 379.960,148.751 379.135,149.320 378.566 C 149.889 377.997,150.591 375.747,150.880 373.566 C 151.169 371.385,151.658 369.600,151.966 369.600 C 152.846 369.600,152.965 361.068,152.108 359.452 C 151.684 358.653,150.921 355.930,150.412 353.400 C 149.902 350.870,149.151 348.800,148.743 348.800 C 148.334 348.800,148.086 348.530,148.190 348.200 C 148.400 347.539,146.355 342.238,145.645 341.600 C 145.159 341.164,143.036 335.715,140.657 328.800 C 139.825 326.380,138.809 323.680,138.399 322.800 C 137.762 321.429,137.064 318.343,135.687 310.800 C 133.482 298.730,137.492 277.044,142.982 271.343 C 143.542 270.761,144.000 269.938,144.000 269.512 C 144.000 268.550,152.671 255.657,155.507 252.400 C 158.991 248.401,158.286 248.148,148.800 249.988 M134.091 266.826 C 137.737 272.391,130.225 291.200,124.357 291.200 C 116.245 291.200,123.854 265.577,132.182 264.851 C 132.501 264.823,133.361 265.712,134.091 266.826 M267.489 266.225 C 266.484 267.230,266.288 268.645,266.583 272.767 C 267.465 285.089,277.564 296.853,279.924 288.306 C 282.482 279.041,272.464 261.251,267.489 266.225 M123.688 299.812 C 127.391 302.262,129.167 314.775,126.914 322.527 C 123.243 335.153,115.159 330.102,115.235 315.230 C 115.293 303.923,119.182 296.831,123.688 299.812 M276.637 300.600 C 272.217 305.712,272.475 322.744,277.050 327.800 C 283.138 334.528,288.956 319.299,285.170 306.548 C 283.264 300.132,279.382 297.426,276.637 300.600 M133.322 344.111 C 143.663 354.234,144.759 372.571,134.875 370.090 C 126.126 367.894,116.771 348.647,121.182 341.915 C 123.380 338.560,128.621 339.509,133.322 344.111 M270.160 342.200 C 258.377 351.062,255.185 372.082,265.929 370.066 C 269.967 369.309,275.411 363.788,278.445 357.375 C 284.346 344.901,279.171 335.423,270.160 342.200 " stroke="none" fill="#a0b708" fill-rule="evenodd"></path><path id="path3" d="M184.400 0.525 C 175.338 1.603,169.085 2.631,168.400 3.156 C 167.960 3.493,165.805 4.208,163.611 4.744 C 161.416 5.280,159.256 6.005,158.811 6.355 C 158.365 6.705,156.653 7.425,155.007 7.956 C 153.360 8.486,150.300 9.846,148.207 10.978 C 146.113 12.109,143.669 13.432,142.775 13.918 C 141.148 14.801,139.630 15.979,136.743 18.600 C 135.894 19.370,134.894 20.000,134.521 20.000 C 133.316 20.000,115.598 37.871,112.754 41.955 C 111.239 44.131,109.460 46.501,108.800 47.223 C 108.140 47.945,107.157 49.225,106.615 50.068 C 106.073 50.911,104.723 52.966,103.615 54.636 C 102.507 56.305,101.600 57.989,101.600 58.378 C 101.600 58.767,101.145 59.561,100.588 60.143 C 98.035 62.811,88.000 85.674,88.000 88.823 C 88.000 89.690,87.698 90.400,87.328 90.400 C 86.959 90.400,86.181 93.010,85.600 96.200 C 85.018 99.390,84.219 102.423,83.823 102.940 C 81.748 105.651,81.849 132.822,83.954 138.400 C 84.370 139.500,85.129 142.560,85.641 145.200 C 86.154 147.840,86.854 150.360,87.198 150.800 C 87.541 151.240,88.279 153.670,88.838 156.200 C 89.397 158.730,90.117 160.800,90.438 160.800 C 90.759 160.800,91.267 162.109,91.568 163.709 C 91.868 165.308,92.808 167.913,93.657 169.497 C 94.505 171.080,95.200 172.687,95.200 173.067 C 95.200 173.752,95.589 174.685,99.426 183.200 C 100.517 185.620,101.656 188.410,101.958 189.400 C 102.261 190.390,102.844 191.200,103.254 191.200 C 103.664 191.200,104.000 191.744,104.000 192.409 C 104.000 193.074,104.697 195.144,105.548 197.009 C 109.928 206.605,109.844 216.273,105.326 222.733 C 103.157 225.833,94.241 234.400,93.183 234.400 C 92.953 234.400,91.423 235.278,89.783 236.351 C 88.142 237.425,85.810 238.544,84.600 238.838 C 83.390 239.133,82.400 239.670,82.400 240.033 C 82.400 240.395,81.590 240.939,80.600 241.240 C 79.610 241.541,76.899 242.645,74.576 243.694 C 72.253 244.742,70.003 245.600,69.576 245.600 C 69.149 245.600,68.800 245.913,68.800 246.296 C 68.800 246.679,67.180 247.446,65.200 248.000 C 63.220 248.554,61.600 249.249,61.600 249.543 C 61.600 249.838,60.340 250.534,58.800 251.091 C 57.260 251.648,56.000 252.440,56.000 252.852 C 56.000 253.263,55.488 253.600,54.861 253.600 C 54.235 253.600,52.653 254.500,51.346 255.600 C 50.039 256.700,48.699 257.600,48.369 257.600 C 47.623 257.600,46.462 258.680,36.000 269.111 C 31.380 273.717,26.972 278.322,26.204 279.343 C 21.341 285.814,13.600 299.899,13.600 302.277 C 13.600 302.785,13.276 303.200,12.880 303.200 C 12.484 303.200,11.707 305.090,11.154 307.400 C 10.600 309.710,9.615 312.860,8.964 314.400 C 6.516 320.191,6.939 349.045,9.521 352.356 C 9.883 352.820,10.432 354.280,10.742 355.600 C 12.395 362.657,17.941 371.519,24.697 377.898 C 30.441 383.321,30.696 383.510,35.513 385.898 C 47.242 391.714,61.387 388.075,63.696 378.648 C 63.999 377.412,64.574 376.185,64.974 375.921 C 65.374 375.658,66.116 372.958,66.621 369.921 C 67.127 366.885,67.851 364.182,68.230 363.916 C 69.122 363.289,68.478 351.784,66.867 339.600 C 62.956 310.004,65.597 299.787,81.400 283.390 C 84.590 280.080,87.200 277.102,87.200 276.773 C 87.200 275.798,100.745 266.833,106.800 263.801 C 124.615 254.880,144.836 249.496,164.883 248.335 L 174.166 247.797 176.622 252.098 C 177.973 254.464,179.335 257.480,179.649 258.800 C 179.963 260.120,180.573 261.648,181.004 262.195 C 182.010 263.473,181.991 279.750,180.981 281.031 C 180.562 281.564,180.188 282.540,180.151 283.200 C 180.040 285.174,178.359 292.282,177.597 294.000 C 177.207 294.880,176.448 297.760,175.911 300.400 C 175.375 303.040,174.682 305.560,174.372 306.000 C 173.894 306.679,172.815 311.429,172.692 313.393 C 172.671 313.727,172.155 315.194,171.545 316.654 C 170.935 318.114,170.485 319.554,170.545 319.854 C 170.605 320.154,170.426 320.940,170.148 321.600 C 169.678 322.716,168.186 328.459,167.655 331.200 C 167.527 331.860,167.207 332.940,166.945 333.600 C 166.483 334.763,164.935 341.949,164.446 345.200 C 164.314 346.080,163.889 347.520,163.503 348.400 C 162.572 350.519,162.596 373.553,163.531 375.600 C 164.414 377.534,164.376 377.421,165.172 380.400 C 166.963 387.107,171.568 394.629,177.758 400.961 C 180.107 403.364,188.695 406.120,195.200 406.558 L 198.800 406.800 198.800 295.348 L 198.800 183.896 189.200 183.693 C 169.178 183.270,130.801 181.409,129.146 180.780 C 125.227 179.290,110.606 157.011,109.207 150.400 C 108.882 148.860,108.317 147.228,107.953 146.773 C 104.941 143.011,104.976 110.836,107.995 106.800 C 108.325 106.360,109.068 104.110,109.648 101.800 C 110.228 99.490,110.955 97.600,111.265 97.600 C 111.574 97.600,112.061 96.665,112.348 95.521 C 113.318 91.659,120.118 80.868,121.894 80.374 C 122.832 80.113,124.320 79.583,125.200 79.196 C 127.037 78.389,134.216 76.727,136.000 76.696 C 136.660 76.684,137.920 76.349,138.800 75.951 C 140.271 75.285,149.612 73.801,163.600 72.011 C 166.680 71.617,175.950 71.036,184.200 70.721 L 199.200 70.147 199.200 35.074 L 199.200 0.000 193.000 0.120 C 189.590 0.186,185.720 0.368,184.400 0.525 M241.086 248.984 C 240.837 249.388,241.330 250.502,242.183 251.459 C 243.035 252.417,244.243 253.856,244.866 254.657 C 245.490 255.459,246.611 256.790,247.357 257.615 C 248.104 258.440,249.285 260.124,249.982 261.357 C 250.679 262.591,251.954 264.680,252.816 266.000 C 255.323 269.841,260.000 279.619,260.000 281.021 C 260.000 281.728,260.323 282.505,260.717 282.749 C 262.872 284.081,264.086 306.259,262.471 314.800 C 261.366 320.643,255.574 337.438,254.332 338.400 C 254.048 338.620,253.544 339.700,253.213 340.800 C 252.881 341.900,251.923 344.330,251.085 346.200 C 250.246 348.070,249.344 350.680,249.080 352.000 C 248.816 353.320,248.345 354.400,248.033 354.400 C 247.331 354.400,247.256 354.876,246.699 362.800 C 246.211 369.739,248.375 378.109,251.957 383.139 C 252.861 384.409,253.600 385.667,253.600 385.936 C 253.600 386.709,260.884 393.280,264.310 395.598 C 266.186 396.866,269.045 397.889,271.510 398.173 C 273.760 398.432,275.844 399.019,276.143 399.477 C 276.513 400.045,277.351 400.006,278.780 399.355 C 279.933 398.830,282.065 398.400,283.518 398.400 C 286.087 398.400,292.775 395.381,295.200 393.127 C 298.321 390.225,301.378 387.023,303.200 384.747 C 304.300 383.372,305.830 381.507,306.600 380.601 C 307.370 379.696,308.000 378.676,308.000 378.335 C 308.000 377.993,308.471 377.239,309.048 376.657 C 309.624 376.076,310.648 374.520,311.325 373.200 C 312.001 371.880,313.446 369.155,314.537 367.144 C 317.542 361.604,320.673 350.842,321.620 342.800 C 322.721 333.455,323.047 322.400,322.236 321.899 C 321.886 321.683,321.593 319.277,321.584 316.553 C 321.566 310.772,320.311 301.101,319.281 298.800 C 318.448 296.941,316.430 287.885,316.650 287.000 C 316.733 286.670,316.480 286.400,316.089 286.400 C 315.698 286.400,315.145 285.155,314.859 283.634 C 313.061 274.050,308.563 269.760,292.000 261.836 C 278.147 255.208,242.760 246.276,241.086 248.984 M274.121 268.290 C 278.511 273.507,281.328 283.222,279.924 288.306 C 277.564 296.853,267.465 285.089,266.583 272.767 C 266.005 264.681,269.392 262.669,274.121 268.290 M282.219 300.803 C 285.925 304.256,287.603 316.830,285.241 323.453 C 281.045 335.219,273.600 329.174,273.600 314.000 C 273.600 302.008,277.350 296.267,282.219 300.803 M279.337 341.324 C 280.450 342.331,280.800 343.816,280.799 347.524 C 280.798 360.504,266.894 375.256,261.058 368.471 C 253.528 359.717,270.996 333.775,279.337 341.324 " stroke="none" fill="#86d104" fill-rule="evenodd"></path><path id="path4" d="M199.200 34.955 L 199.200 70.153 213.800 70.713 C 221.830 71.021,230.740 71.587,233.600 71.972 C 271.070 77.008,277.162 78.837,281.652 86.394 C 298.903 115.433,297.266 145.361,276.942 172.469 L 270.800 180.661 265.200 181.146 C 256.918 181.862,222.589 183.193,212.000 183.208 C 206.940 183.216,201.991 183.439,201.003 183.703 L 199.206 184.185 199.003 295.493 L 198.800 406.800 195.200 406.550 C 191.979 406.325,188.125 405.560,183.684 404.262 C 182.366 403.877,182.314 403.977,183.284 405.025 C 183.898 405.689,184.670 406.069,185.000 405.869 C 185.330 405.669,185.600 405.838,185.600 406.245 C 185.600 407.754,196.602 409.683,204.381 409.538 C 208.606 409.460,211.858 409.192,211.610 408.943 C 211.361 408.694,212.977 408.025,215.201 407.456 C 217.425 406.887,219.798 405.967,220.474 405.411 C 223.071 403.277,229.600 396.799,229.600 396.357 C 229.600 396.102,230.440 394.747,231.466 393.347 C 232.492 391.946,233.767 389.270,234.298 387.400 C 234.829 385.530,235.610 384.000,236.032 384.000 C 236.454 384.000,236.800 383.303,236.800 382.452 C 236.800 381.601,237.215 379.891,237.722 378.652 C 239.439 374.461,239.587 373.216,239.472 364.000 C 239.321 352.028,239.207 350.400,238.521 350.400 C 238.206 350.400,237.870 349.410,237.772 348.200 C 237.675 346.990,237.212 344.020,236.743 341.600 C 235.551 335.453,235.608 335.686,235.055 334.800 C 234.781 334.360,234.300 332.290,233.987 330.200 C 233.674 328.110,233.149 326.400,232.820 326.400 C 232.491 326.400,232.394 325.500,232.604 324.400 C 232.814 323.300,232.625 322.400,232.184 322.400 C 231.742 322.400,230.939 320.056,230.398 317.190 C 229.857 314.325,229.130 311.804,228.782 311.589 C 228.435 311.374,227.896 309.309,227.586 306.999 C 227.276 304.690,226.541 301.629,225.952 300.199 C 225.363 298.768,224.478 295.528,223.985 292.999 C 222.920 287.529,222.848 287.259,221.921 285.200 C 220.686 282.458,221.012 261.658,222.302 260.860 C 222.909 260.486,223.158 259.779,222.855 259.289 C 222.553 258.800,222.608 258.400,222.977 258.400 C 223.347 258.400,224.061 257.310,224.564 255.977 C 225.067 254.644,225.583 253.294,225.711 252.977 C 227.431 248.715,236.842 245.962,239.750 248.870 C 240.265 249.385,240.807 249.436,241.080 248.995 C 241.358 248.544,244.472 248.679,248.970 249.337 C 273.314 252.898,298.729 262.815,311.151 273.600 C 318.565 280.037,326.948 288.367,327.455 289.800 C 327.727 290.570,328.277 291.200,328.678 291.200 C 329.078 291.200,329.851 292.275,330.396 293.590 C 330.940 294.904,331.659 295.811,331.993 295.604 C 332.327 295.398,333.050 296.836,333.600 298.800 C 334.150 300.764,334.860 302.210,335.177 302.014 C 337.334 300.681,338.439 322.555,336.852 335.179 C 336.383 338.907,336.000 343.497,336.000 345.379 C 336.000 347.261,335.622 348.800,335.161 348.800 C 334.622 348.800,334.371 351.663,334.459 356.800 C 334.535 361.200,334.866 364.800,335.195 364.800 C 335.523 364.800,335.978 366.330,336.205 368.200 C 336.433 370.070,337.080 372.680,337.642 374.000 C 338.205 375.320,338.700 376.580,338.742 376.800 C 339.063 378.481,341.131 382.400,341.697 382.400 C 342.084 382.400,342.400 382.940,342.400 383.600 C 342.400 384.260,342.746 384.800,343.169 384.800 C 343.592 384.800,344.652 385.567,345.525 386.504 C 348.158 389.330,367.200 389.274,367.200 386.440 C 367.200 386.085,368.370 385.322,369.800 384.744 C 371.230 384.166,372.688 383.223,373.040 382.647 C 373.392 382.071,374.042 381.600,374.486 381.600 C 375.444 381.600,381.329 375.687,383.600 372.442 C 384.480 371.185,385.830 369.491,386.600 368.678 C 387.370 367.865,387.967 367.110,387.926 367.000 C 387.787 366.625,389.965 362.002,390.470 361.600 C 390.746 361.380,391.451 359.310,392.037 357.000 C 392.623 354.690,393.351 352.800,393.654 352.800 C 396.574 352.800,396.557 316.011,393.635 312.427 C 393.264 311.972,392.488 309.556,391.911 307.057 C 391.335 304.558,390.650 302.645,390.391 302.806 C 390.131 302.966,389.447 301.500,388.871 299.549 C 388.295 297.597,387.532 296.000,387.175 296.000 C 386.819 296.000,386.285 294.896,385.988 293.546 C 385.692 292.196,384.943 290.898,384.325 290.660 C 383.706 290.423,383.200 289.671,383.200 288.990 C 383.200 288.309,382.350 286.637,381.312 285.276 C 380.273 283.914,379.373 282.530,379.312 282.200 C 379.250 281.870,378.570 280.911,377.800 280.069 C 377.030 279.228,375.500 277.435,374.400 276.086 C 371.423 272.435,365.735 266.400,365.271 266.400 C 365.047 266.400,363.396 264.960,361.600 263.200 C 359.804 261.440,357.990 260.000,357.568 260.000 C 357.145 260.000,356.800 259.691,356.800 259.314 C 356.800 258.936,354.550 257.251,351.800 255.568 C 349.050 253.885,346.620 252.304,346.400 252.054 C 346.180 251.804,345.460 251.482,344.800 251.337 C 344.140 251.192,343.013 250.545,342.295 249.899 C 341.577 249.252,339.597 248.345,337.895 247.882 C 336.193 247.419,334.260 246.577,333.600 246.010 C 332.940 245.442,331.230 244.729,329.800 244.425 C 328.370 244.122,327.200 243.569,327.200 243.198 C 327.200 242.828,325.850 242.087,324.200 241.552 C 320.790 240.448,307.739 232.986,307.333 231.909 C 307.187 231.519,306.628 231.200,306.092 231.200 C 304.741 231.200,298.759 224.791,298.063 222.598 C 297.749 221.609,297.182 220.800,296.803 220.800 C 294.251 220.800,294.045 201.000,296.579 199.297 C 296.986 199.024,297.787 197.097,298.359 195.015 C 298.931 192.933,299.715 191.424,300.100 191.662 C 300.485 191.900,300.801 191.443,300.803 190.647 C 300.805 189.851,301.450 188.120,302.236 186.800 C 303.023 185.480,304.159 182.870,304.761 181.000 C 305.363 179.130,306.112 177.600,306.424 177.600 C 306.736 177.600,307.469 175.890,308.052 173.800 C 308.635 171.710,309.580 169.100,310.152 168.000 C 310.723 166.900,311.413 164.830,311.685 163.400 C 311.956 161.970,312.468 160.800,312.823 160.800 C 313.177 160.800,313.859 158.972,314.338 156.739 C 314.817 154.505,315.606 151.937,316.090 151.032 C 316.574 150.127,317.458 146.825,318.055 143.693 C 318.651 140.562,319.527 136.200,320.001 134.000 C 321.034 129.202,321.102 109.605,320.099 105.440 C 319.707 103.812,319.585 102.282,319.827 102.040 C 320.069 101.798,319.894 101.600,319.439 101.600 C 318.983 101.600,318.398 100.250,318.138 98.600 C 317.122 92.151,316.619 89.984,316.051 89.600 C 315.726 89.380,315.054 87.580,314.558 85.600 C 314.062 83.620,312.924 80.574,312.028 78.831 C 311.133 77.088,310.400 74.997,310.400 74.184 C 310.400 73.371,310.040 72.928,309.600 73.200 C 309.160 73.472,308.800 73.033,308.800 72.225 C 308.800 71.417,308.240 69.956,307.555 68.978 C 306.870 68.000,306.600 67.194,306.955 67.188 C 307.310 67.181,307.240 66.911,306.800 66.588 C 305.757 65.821,304.000 62.663,304.000 61.554 C 304.000 61.076,303.550 60.184,303.000 59.571 C 300.545 56.833,299.979 55.999,300.568 55.988 C 300.916 55.981,300.840 55.711,300.400 55.388 C 299.311 54.588,296.002 49.816,295.992 49.032 C 295.977 47.801,290.608 41.658,290.042 42.225 C 289.726 42.541,289.587 42.347,289.733 41.793 C 290.138 40.263,277.743 26.400,275.970 26.400 C 275.495 26.400,275.328 26.040,275.600 25.600 C 275.872 25.160,275.735 24.800,275.297 24.800 C 274.858 24.800,273.316 23.720,271.871 22.400 C 270.426 21.080,268.964 20.000,268.622 20.000 C 268.280 20.000,267.323 19.370,266.495 18.600 C 263.681 15.983,261.204 14.335,259.400 13.880 C 258.410 13.631,257.600 13.087,257.600 12.672 C 257.600 12.256,256.520 11.540,255.200 11.080 C 253.880 10.620,252.800 9.947,252.800 9.585 C 252.800 9.223,251.630 8.675,250.200 8.366 C 248.770 8.057,246.340 7.172,244.800 6.398 C 243.260 5.625,240.470 4.737,238.600 4.426 C 236.730 4.114,235.200 3.596,235.200 3.273 C 235.200 2.239,223.149 0.725,211.000 0.234 L 199.200 -0.243 199.200 34.955 " stroke="none" fill="#80e302" fill-rule="evenodd"></path><path id="path5" d="M174.484 71.284 C 158.819 72.410,137.889 75.871,126.000 79.302 C 120.449 80.904,120.372 80.965,117.235 86.188 C 100.178 114.587,101.800 145.866,121.697 172.235 L 127.993 180.579 134.597 181.078 C 140.722 181.541,176.200 182.980,192.135 183.412 C 197.178 183.549,198.867 183.356,198.324 182.705 C 197.874 182.165,197.662 159.718,197.789 126.105 L 198.000 70.400 190.800 70.514 C 186.840 70.577,179.498 70.923,174.484 71.284 " stroke="none" fill="#ded5e5" fill-rule="evenodd"></path><path id="path6" d="M198.133 70.933 C 197.058 72.009,197.517 182.146,198.600 182.906 C 199.150 183.291,206.260 183.406,214.400 183.161 L 229.200 182.714 213.789 182.557 L 198.379 182.400 198.589 126.400 C 198.705 95.600,198.770 70.400,198.733 70.400 C 198.697 70.400,198.427 70.640,198.133 70.933 M204.200 70.991 C 206.730 71.150,210.870 71.150,213.400 70.991 C 215.930 70.832,213.860 70.703,208.800 70.703 C 203.740 70.703,201.670 70.832,204.200 70.991 M225.200 71.957 C 226.713 72.648,234.243 73.138,233.533 72.500 C 233.350 72.335,231.040 71.981,228.400 71.713 C 225.233 71.392,224.144 71.475,225.200 71.957 M235.568 72.749 C 235.858 73.217,237.393 73.600,238.981 73.600 C 242.511 73.600,242.207 73.194,238.121 72.455 C 236.025 72.076,235.210 72.170,235.568 72.749 M251.200 75.163 C 251.860 75.610,253.090 75.981,253.933 75.988 C 255.980 76.004,255.342 75.546,252.400 74.888 C 250.647 74.496,250.324 74.570,251.200 75.163 M256.400 76.000 C 256.672 76.440,257.863 76.775,259.047 76.744 C 260.969 76.694,261.029 76.614,259.600 76.000 C 257.377 75.045,255.810 75.045,256.400 76.000 M266.778 78.364 C 266.990 78.708,268.523 79.217,270.182 79.494 C 271.842 79.772,274.100 80.187,275.200 80.416 C 276.300 80.645,275.865 80.309,274.233 79.669 C 270.658 78.268,266.241 77.495,266.778 78.364 M280.174 85.391 C 281.618 88.135,283.090 90.385,283.445 90.391 C 284.099 90.400,281.585 85.869,278.974 82.332 C 278.190 81.269,278.730 82.646,280.174 85.391 M284.035 91.426 C 283.966 92.648,286.428 97.838,286.868 97.398 C 287.114 97.152,286.586 95.567,285.693 93.875 C 284.801 92.184,284.055 91.082,284.035 91.426 M288.065 101.348 C 287.968 102.764,289.581 106.686,290.063 106.204 C 290.292 105.974,289.952 104.574,289.306 103.093 C 288.659 101.612,288.101 100.827,288.065 101.348 M291.292 112.800 C 291.255 113.900,291.573 115.340,292.000 116.000 C 292.987 117.528,292.987 115.883,292.000 112.800 L 291.359 110.800 291.292 112.800 M292.310 127.200 C 292.316 135.758,292.366 136.053,293.024 131.430 C 293.436 128.534,293.434 124.695,293.018 122.230 C 292.396 118.548,292.304 119.192,292.310 127.200 M291.699 138.031 C 291.424 138.746,291.232 140.111,291.272 141.065 C 291.323 142.294,291.570 142.017,292.118 140.112 C 292.915 137.343,292.587 135.716,291.699 138.031 M288.822 149.141 C 287.569 152.438,287.969 153.569,289.306 150.507 C 289.952 149.026,290.292 147.626,290.063 147.396 C 289.833 147.166,289.275 147.951,288.822 149.141 M285.221 158.360 C 284.549 159.658,284.000 160.999,284.000 161.338 C 284.000 162.156,285.996 159.181,286.642 157.400 C 287.450 155.173,286.557 155.776,285.221 158.360 M282.400 163.159 C 282.400 163.576,279.661 167.536,276.314 171.959 L 270.228 180.000 265.314 180.056 C 262.611 180.087,259.680 180.430,258.800 180.818 C 257.813 181.254,259.805 181.344,264.000 181.052 C 267.740 180.793,270.832 180.540,270.872 180.490 C 272.333 178.666,283.109 164.099,283.515 163.400 C 283.833 162.850,283.713 162.400,283.247 162.400 C 282.781 162.400,282.400 162.742,282.400 163.159 M240.621 182.187 C 242.503 182.356,245.383 182.353,247.021 182.182 C 248.660 182.010,247.120 181.871,243.600 181.874 C 240.080 181.877,238.740 182.018,240.621 182.187 " stroke="none" fill="#e4dfe9" fill-rule="evenodd"></path></g></svg>